<svg id="Layer_1" data-name="Layer 1" xmlns="http://www.w3.org/2000/svg" viewBox="0 0 240 240"><defs><style>.cls-1{font-size:12px;font-family:Gilroy-SemiBold, Gilroy;font-weight:600;}</style></defs><text class="cls-1" transform="translate(125.9 30.11) rotate(6.54)">D</text><text class="cls-1" transform="translate(134.76 31.18) rotate(11.69)">o</text><text class="cls-1" transform="translate(142.15 32.73) rotate(16.35)">n</text><text class="cls-1" transform="translate(148.65 34.69) rotate(19.24)">&apos;</text><text class="cls-1" transform="translate(151.38 35.63) rotate(21.8)">t</text><text class="cls-1" transform="matrix(0.91, 0.41, -0.41, 0.91, 156.04, 37.53)"> </text><text class="cls-1" transform="matrix(0.88, 0.48, -0.48, 0.88, 159.16, 38.84)">w</text><text class="cls-1" transform="matrix(0.83, 0.56, -0.56, 0.83, 167.35, 43.37)">a</text><text class="cls-1" transform="matrix(0.79, 0.61, -0.61, 0.79, 173.87, 47.9)">i</text><text class="cls-1" transform="translate(176.45 49.88) rotate(40.35)">t</text><text class="cls-1" transform="translate(180.25 53.15) rotate(43.04)"> </text><text class="cls-1" transform="translate(182.77 55.44) rotate(46.42)">u</text><text class="cls-1" transform="translate(187.74 60.69) rotate(51)">n</text><text class="cls-1" transform="matrix(0.58, 0.82, -0.82, 0.58, 192.26, 66.35)">t</text><text class="cls-1" transform="matrix(0.54, 0.84, -0.84, 0.54, 195.1, 70.43)">i</text><text class="cls-1" transform="translate(196.84 73.17) rotate(59.5)">l</text><text class="cls-1" transform="matrix(0.48, 0.88, -0.88, 0.48, 198.47, 75.96)"> </text><text class="cls-1" transform="translate(200.13 78.96) rotate(64.81)">y</text><text class="cls-1" transform="matrix(0.36, 0.93, -0.93, 0.36, 202.86, 84.74)">o</text><text class="cls-1" transform="translate(205.52 91.78) rotate(73.87)">u</text><text class="cls-1" transform="translate(207.47 98.8) rotate(77.31)"> </text><text class="cls-1" transform="matrix(0.18, 0.98, -0.98, 0.18, 208.23, 102.14)">f</text><text class="cls-1" transform="translate(208.99 106.1) rotate(83.37)">e</text><text class="cls-1" transform="translate(209.82 113.38) rotate(88.07)">e</text><text class="cls-1" transform="matrix(-0.03, 1, -1, -0.03, 209.99, 120.76)">l</text><text class="cls-1" transform="matrix(-0.06, 1, -1, -0.06, 209.9, 124.01)"> </text><text class="cls-1" transform="matrix(-0.11, 0.99, -0.99, -0.11, 209.69, 127.45)">r</text><text class="cls-1" transform="translate(209.25 131.67) rotate(99.2)">e</text><text class="cls-1" transform="translate(208.05 138.87) rotate(104.44)">a</text><text class="cls-1" transform="matrix(-0.33, 0.94, -0.94, -0.33, 206.07, 146.53)">d</text><text class="cls-1" transform="matrix(-0.41, 0.91, -0.91, -0.41, 203.38, 154)">y</text><text class="cls-1" transform="translate(201.08 159.09) rotate(116.69)">.</text><text class="cls-1" transform="translate(199.49 162.23) rotate(118.93)"> </text><text class="cls-1" transform="matrix(-0.52, 0.86, -0.86, -0.52, 197.81, 165.24)"> </text><text class="cls-1" transform="translate(196.02 168.2) rotate(123.36)"> </text><text class="cls-1" transform="translate(194.22 171.08) rotate(127.31)">D</text><text class="cls-1" transform="translate(188.77 178.14) rotate(132.55)">o</text><text class="cls-1" transform="matrix(-0.73, 0.68, -0.68, -0.73, 183.66, 183.68)">n</text><text class="cls-1" transform="translate(178.62 188.27) rotate(140.13)">&apos;</text><text class="cls-1" transform="matrix(-0.8, 0.61, -0.61, -0.8, 176.4, 190.14)">t</text><text class="cls-1" transform="translate(172.4 193.15) rotate(145.34)"> </text><text class="cls-1" transform="matrix(-0.86, 0.51, -0.51, -0.86, 169.66, 195.16)">w</text><text class="cls-1" transform="translate(161.6 199.87) rotate(154.84)">a</text><text class="cls-1" transform="translate(154.36 203.17) rotate(158.39)">i</text><text class="cls-1" transform="matrix(-0.95, 0.33, -0.33, -0.95, 151.35, 204.38)">t</text><text class="cls-1" transform="translate(146.6 205.98) rotate(163.72)"> </text><text class="cls-1" transform="matrix(-0.97, 0.22, -0.22, -0.97, 143.34, 206.98)">u</text><text class="cls-1" transform="translate(136.3 208.57) rotate(171.76)">n</text><text class="cls-1" transform="translate(129.1 209.56) rotate(175.69)">t</text><text class="cls-1" transform="matrix(-1, 0.03, -0.03, -1, 124.18, 209.91)">i</text><text class="cls-1" transform="translate(120.91 209.99) rotate(-179.62)">l</text><text class="cls-1" transform="translate(117.66 209.97) rotate(-177.48)"> </text><text class="cls-1" transform="translate(114.26 209.85) rotate(-174.3)">y</text><text class="cls-1" transform="translate(107.94 209.18) rotate(-170.8)">o</text><text class="cls-1" transform="matrix(-0.97, -0.25, 0.25, -0.97, 100.47, 207.89)">u</text><text class="cls-1" transform="translate(93.46 205.99) rotate(-161.96)"> </text><text class="cls-1" transform="translate(90.18 204.92) rotate(-159.48)">f</text><text class="cls-1" transform="matrix(-0.91, -0.41, 0.41, -0.91, 86.4, 203.56)">e</text><text class="cls-1" transform="translate(79.73 200.56) rotate(-151.22)">e</text><text class="cls-1" transform="translate(73.29 196.94) rotate(-147.83)">l</text><text class="cls-1" transform="translate(70.54 195.2) rotate(-145.68)"> </text><text class="cls-1" transform="translate(67.7 193.26) rotate(-143.12)">r</text><text class="cls-1" transform="matrix(-0.76, -0.65, 0.65, -0.76, 64.28, 190.75)">e</text><text class="cls-1" transform="translate(58.73 186) rotate(-134.67)">a</text><text class="cls-1" transform="translate(53.18 180.37) rotate(-129.66)">d</text><text class="cls-1" transform="matrix(-0.57, -0.82, 0.82, -0.57, 48.14, 174.22)">y</text><text class="cls-1" transform="translate(44.37 168.75) rotate(-121.87)"> </text><text class="cls-1" transform="translate(42.56 165.82) rotate(-119.69)"> </text><text class="cls-1" transform="translate(40.84 162.79) rotate(-117.48)"> </text><text class="cls-1" transform="translate(39.21 159.84) rotate(-113.57)">D</text><text class="cls-1" transform="translate(35.68 151.62) rotate(-108.32)">o</text><text class="cls-1" transform="translate(33.33 144.47) rotate(-103.61)">n</text><text class="cls-1" transform="translate(31.78 137.83) rotate(-100.69)">&apos;</text><text class="cls-1" transform="translate(31.24 135.01) rotate(-98.13)">t</text><text class="cls-1" transform="translate(30.55 130.02) rotate(-95.41)"> </text><text class="cls-1" transform="translate(30.13 126.66) rotate(-91.24)">w</text><text class="cls-1" transform="translate(29.98 117.32) rotate(-85.82)">a</text><text class="cls-1" transform="translate(30.64 109.38) rotate(-82.29)">i</text><text class="cls-1" transform="translate(31.04 106.17) rotate(-78.95)">t</text><text class="cls-1" transform="translate(31.99 101.25) rotate(-77.07)"> </text><text class="cls-1" transform="translate(32.71 97.92) rotate(-73.69)">u</text><text class="cls-1" transform="translate(34.76 90.97) rotate(-69.07)">n</text><text class="cls-1" transform="matrix(0.42, -0.91, 0.91, 0.42, 37.39, 84.23)">t</text><text class="cls-1" transform="translate(39.5 79.74) rotate(-62.55)">i</text><text class="cls-1" transform="translate(41.01 76.86) rotate(-60.47)">l</text><text class="cls-1" transform="matrix(0.53, -0.85, 0.85, 0.53, 42.62, 74.02)"> </text><text class="cls-1" transform="matrix(0.57, -0.82, 0.82, 0.57, 44.39, 71.1)">y</text><text class="cls-1" transform="matrix(0.63, -0.77, 0.77, 0.63, 48.03, 65.86)">o</text><text class="cls-1" transform="translate(52.81 60.05) rotate(-46.03)">u</text><text class="cls-1" transform="matrix(0.74, -0.68, 0.68, 0.74, 57.91, 54.87)"> </text><text class="cls-1" transform="translate(60.43 52.54) rotate(-40.17)">f</text><text class="cls-1" transform="matrix(0.8, -0.6, 0.6, 0.8, 63.48, 49.91)">e</text><text class="cls-1" transform="matrix(0.85, -0.53, 0.53, 0.85, 69.37, 45.55)">e</text><text class="cls-1" transform="translate(75.67 41.69) rotate(-28.66)">l</text><text class="cls-1" transform="translate(78.52 40.14) rotate(-26.54)"> </text><text class="cls-1" transform="translate(81.6 38.6) rotate(-24)">r</text><text class="cls-1" transform="translate(85.47 36.83) rotate(-20.38)">e</text><text class="cls-1" transform="translate(92.31 34.29) rotate(-15.54)">a</text><text class="cls-1" transform="translate(99.94 32.19) rotate(-10.47)">d</text><text class="cls-1" transform="translate(107.76 30.79) rotate(-5.8)">y</text><circle cx="120" cy="26.25" r="2.26"/><circle cx="200.41" cy="168.52" r="2.26"/><circle cx="38.41" cy="166.46" r="2.26"/></svg>